<svg width="558" height="762" viewBox="0 0 558 762" fill="none" xmlns="http://www.w3.org/2000/svg">
<g filter="url(#filter0_g_617_201)">
<path d="M260.162 685.189C260.162 674.8 268.584 666.378 278.973 666.378C289.362 666.378 297.784 674.8 297.784 685.189C297.784 695.578 289.362 704 278.973 704C268.584 704 260.162 695.578 260.162 685.189Z" fill="#0E0E0E"/>
<path d="M260.162 666.378H297.784H260.162ZM297.784 685.689C297.784 696.078 289.362 704.5 278.973 704.5C268.584 704.5 260.162 696.078 260.162 685.689V685.189C260.162 695.302 268.584 703.5 278.973 703.5H278.974C289.362 703.5 297.784 695.302 297.784 685.189V685.689ZM260.162 704V666.378V704ZM297.784 666.378V704V666.378Z" fill="#6C63FF"/>
</g>
<g filter="url(#filter1_d_617_201)">
<path d="M264.652 685.189C264.652 677.281 271.063 670.871 278.971 670.871C286.879 670.871 293.29 677.281 293.29 685.189C293.29 693.097 286.879 699.508 278.971 699.508C271.063 699.508 264.652 693.097 264.652 685.189Z" fill="#0E0E0E"/>
<path d="M264.652 684.69C264.652 676.781 271.063 670.371 278.971 670.371C286.879 670.371 293.29 676.781 293.29 684.69V685.189C293.29 677.557 286.879 671.371 278.971 671.371H278.971C271.063 671.371 264.652 677.557 264.652 685.189V684.69ZM293.29 699.508H264.652H293.29ZM264.652 699.508V670.871V699.508ZM293.29 670.871V699.508V670.871Z" fill="#6C63FF"/>
</g>
<g filter="url(#filter2_g_617_201)">
<path d="M242 620.973C242 600.553 258.554 584 278.974 584C299.393 584 315.947 600.553 315.947 620.973C315.947 641.393 299.393 657.946 278.974 657.946C258.554 657.946 242 641.393 242 620.973Z" fill="#0E0E0E"/>
<path d="M242 584H315.947H242ZM315.947 621.472C315.947 641.892 299.394 658.446 278.974 658.446C258.554 658.446 242 641.892 242 621.472V620.973C242 641.116 258.553 657.446 278.973 657.446H278.974C299.394 657.446 315.947 641.116 315.947 620.973V621.472ZM242 657.946V584V657.946ZM315.947 584V657.946V584Z" fill="#6C63FF"/>
</g>
<g filter="url(#filter3_d_617_201)">
<path d="M250.83 620.973C250.83 605.43 263.431 592.83 278.974 592.83C294.517 592.83 307.118 605.43 307.118 620.973C307.118 636.516 294.517 649.117 278.974 649.117C263.431 649.117 250.83 636.516 250.83 620.973Z" fill="#0E0E0E"/>
<path d="M250.83 620.474C250.83 604.93 263.431 592.33 278.974 592.33C294.518 592.33 307.118 604.93 307.118 620.474V620.973C307.118 605.706 294.518 593.33 278.975 593.33H278.974C263.43 593.33 250.83 605.706 250.83 620.973V620.474ZM307.118 649.117H250.83H307.118ZM250.83 649.117V592.83V649.117ZM307.118 592.83V649.117V592.83Z" fill="#6C63FF"/>
</g>
<g filter="url(#filter4_g_617_201)">
<path d="M4 279C4 127.122 127.122 4 279 4C430.878 4 554 127.122 554 279C554 430.878 430.878 554 279 554C127.122 554 4 430.878 4 279Z" fill="#0E0E0E"/>
<path d="M4 4H554H4ZM554 279.5C554 431.378 430.878 554.5 279 554.5C127.122 554.5 4 431.378 4 279.5V279C4 430.602 127.122 553.5 279 553.5C430.878 553.5 554 430.602 554 279V279.5ZM4 554V4V554ZM554 4V554V4Z" fill="#6C63FF"/>
</g>
<g filter="url(#filter5_d_617_201)">
<path d="M71 279C71 164.125 164.125 71 279 71C393.875 71 487 164.125 487 279C487 393.875 393.875 487 279 487C164.125 487 71 393.875 71 279Z" fill="#0E0E0E"/>
<path d="M71 278.5C71 163.625 164.125 70.5 279 70.5C393.875 70.5 487 163.625 487 278.5V279C487 164.401 393.875 71.5 279 71.5C164.125 71.5 71 164.401 71 279V278.5ZM487 487H71H487ZM71 487V71V487ZM487 71V487V71Z" fill="#6C63FF"/>
</g>
<defs>
<filter id="filter0_g_617_201" x="256.162" y="662.378" width="45.623" height="46.1216" filterUnits="userSpaceOnUse" color-interpolation-filters="sRGB">
<feFlood flood-opacity="0" result="BackgroundImageFix"/>
<feBlend mode="normal" in="SourceGraphic" in2="BackgroundImageFix" result="shape"/>
<feTurbulence type="fractalNoise" baseFrequency="2 2" numOctaves="3" seed="141" />
<feDisplacementMap in="shape" scale="8" xChannelSelector="R" yChannelSelector="G" result="displacedImage" width="100%" height="100%" />
<feMerge result="effect1_texture_617_201">
<feMergeNode in="displacedImage"/>
</feMerge>
</filter>
<filter id="filter1_d_617_201" x="206.652" y="616.371" width="144.639" height="145.137" filterUnits="userSpaceOnUse" color-interpolation-filters="sRGB">
<feFlood flood-opacity="0" result="BackgroundImageFix"/>
<feColorMatrix in="SourceAlpha" type="matrix" values="0 0 0 0 0 0 0 0 0 0 0 0 0 0 0 0 0 0 127 0" result="hardAlpha"/>
<feMorphology radius="8" operator="dilate" in="SourceAlpha" result="effect1_dropShadow_617_201"/>
<feOffset dy="4"/>
<feGaussianBlur stdDeviation="25"/>
<feComposite in2="hardAlpha" operator="out"/>
<feColorMatrix type="matrix" values="0 0 0 0 0.423529 0 0 0 0 0.388235 0 0 0 0 1 0 0 0 0.15 0"/>
<feBlend mode="normal" in2="BackgroundImageFix" result="effect1_dropShadow_617_201"/>
<feBlend mode="normal" in="SourceGraphic" in2="effect1_dropShadow_617_201" result="shape"/>
</filter>
<filter id="filter2_g_617_201" x="238" y="580" width="81.9473" height="82.4458" filterUnits="userSpaceOnUse" color-interpolation-filters="sRGB">
<feFlood flood-opacity="0" result="BackgroundImageFix"/>
<feBlend mode="normal" in="SourceGraphic" in2="BackgroundImageFix" result="shape"/>
<feTurbulence type="fractalNoise" baseFrequency="2 2" numOctaves="3" seed="141" />
<feDisplacementMap in="shape" scale="8" xChannelSelector="R" yChannelSelector="G" result="displacedImage" width="100%" height="100%" />
<feMerge result="effect1_texture_617_201">
<feMergeNode in="displacedImage"/>
</feMerge>
</filter>
<filter id="filter3_d_617_201" x="192.83" y="538.33" width="172.289" height="172.787" filterUnits="userSpaceOnUse" color-interpolation-filters="sRGB">
<feFlood flood-opacity="0" result="BackgroundImageFix"/>
<feColorMatrix in="SourceAlpha" type="matrix" values="0 0 0 0 0 0 0 0 0 0 0 0 0 0 0 0 0 0 127 0" result="hardAlpha"/>
<feMorphology radius="8" operator="dilate" in="SourceAlpha" result="effect1_dropShadow_617_201"/>
<feOffset dy="4"/>
<feGaussianBlur stdDeviation="25"/>
<feComposite in2="hardAlpha" operator="out"/>
<feColorMatrix type="matrix" values="0 0 0 0 0.423529 0 0 0 0 0.388235 0 0 0 0 1 0 0 0 0.15 0"/>
<feBlend mode="normal" in2="BackgroundImageFix" result="effect1_dropShadow_617_201"/>
<feBlend mode="normal" in="SourceGraphic" in2="effect1_dropShadow_617_201" result="shape"/>
</filter>
<filter id="filter4_g_617_201" x="0" y="0" width="558" height="558.5" filterUnits="userSpaceOnUse" color-interpolation-filters="sRGB">
<feFlood flood-opacity="0" result="BackgroundImageFix"/>
<feBlend mode="normal" in="SourceGraphic" in2="BackgroundImageFix" result="shape"/>
<feTurbulence type="fractalNoise" baseFrequency="2 2" numOctaves="3" seed="141" />
<feDisplacementMap in="shape" scale="8" xChannelSelector="R" yChannelSelector="G" result="displacedImage" width="100%" height="100%" />
<feMerge result="effect1_texture_617_201">
<feMergeNode in="displacedImage"/>
</feMerge>
</filter>
<filter id="filter5_d_617_201" x="13" y="16.5" width="532" height="532.5" filterUnits="userSpaceOnUse" color-interpolation-filters="sRGB">
<feFlood flood-opacity="0" result="BackgroundImageFix"/>
<feColorMatrix in="SourceAlpha" type="matrix" values="0 0 0 0 0 0 0 0 0 0 0 0 0 0 0 0 0 0 127 0" result="hardAlpha"/>
<feMorphology radius="8" operator="dilate" in="SourceAlpha" result="effect1_dropShadow_617_201"/>
<feOffset dy="4"/>
<feGaussianBlur stdDeviation="25"/>
<feComposite in2="hardAlpha" operator="out"/>
<feColorMatrix type="matrix" values="0 0 0 0 0.423529 0 0 0 0 0.388235 0 0 0 0 1 0 0 0 0.15 0"/>
<feBlend mode="normal" in2="BackgroundImageFix" result="effect1_dropShadow_617_201"/>
<feBlend mode="normal" in="SourceGraphic" in2="effect1_dropShadow_617_201" result="shape"/>
</filter>
</defs>
</svg>
