<svg width="25" height="24" viewBox="0 0 25 24" fill="none" xmlns="http://www.w3.org/2000/svg">
<path d="M23.2309 18.4922L24.0446 19.1783C23.5234 20.476 22.8373 21.5024 21.9864 22.2576C21.1354 23.0022 20.2898 23.3745 19.4495 23.3745C18.9496 23.3745 18.5188 23.1458 18.1571 22.6884C17.7955 22.231 17.6146 21.5928 17.6146 20.7738C17.6146 19.9548 17.838 18.7368 18.2848 17.12C18.7315 15.4926 19.2208 13.9024 19.7527 12.3494C21.178 8.19039 21.8907 5.24929 21.8907 3.52612C21.8907 2.27097 21.5662 1.6434 20.9174 1.6434C20.2792 1.6434 19.5612 2.03696 18.7634 2.82409C17.9657 3.61122 17.1839 4.63235 16.418 5.8875C15.6628 7.14265 14.8969 8.53077 14.1204 10.0518C13.3439 11.5729 12.626 13.094 11.9665 14.6151C11.3176 16.1255 10.7326 17.5083 10.2114 18.7634C9.70082 20.0186 9.28598 21.0397 8.96688 21.8268C8.65841 22.614 8.48822 23.0075 8.45631 23.0075H5.48862L7.14797 18.3326C9.1477 12.6738 10.1476 8.3978 10.1476 5.50458C10.1582 2.60071 9.06261 1.14878 6.86078 1.14878C6.04174 1.14878 5.2812 1.38279 4.57917 1.85081C3.88777 2.3082 3.3187 2.89323 2.87195 3.6059C2.4252 4.30793 2.04228 5.09506 1.72317 5.96728C1.13814 7.60536 0.845631 9.19025 0.845631 10.722C0.845631 13.6258 1.51043 16.1734 2.84004 18.3645L2.21779 18.8911C1.49448 17.7317 0.941362 16.4393 0.558435 15.0139C0.186145 13.578 0 12.2962 0 11.1687C0 10.0306 0.0797765 8.98815 0.239329 8.04147C0.398882 7.08415 0.664804 6.12152 1.03709 5.15356C1.40938 4.17497 1.86677 3.31338 2.40925 2.5688C2.95173 1.81359 3.64844 1.19665 4.49939 0.717988C5.35034 0.239329 6.20129 0 7.05224 0C7.91383 0 8.62118 0.117006 9.17429 0.351017C9.72741 0.585028 10.1848 0.904134 10.5464 1.30833C10.9081 1.7019 11.2113 2.16992 11.4559 2.7124C11.9027 3.73354 12.126 4.85041 12.126 6.06301C12.126 7.27562 11.9984 8.67436 11.7431 10.2593C11.424 12.1845 11.0517 13.9502 10.6262 15.5564C10.9666 14.6097 11.2591 13.8811 11.5038 13.3705C11.7591 12.8493 12.0516 12.2271 12.3813 11.5038C12.7217 10.7805 13.0248 10.1316 13.2908 9.55722C13.5567 8.9722 13.9077 8.26484 14.3438 7.43517C14.7799 6.60549 15.1894 5.87155 15.5724 5.23334C15.9553 4.59513 16.3967 3.93564 16.8967 3.25488C17.4072 2.56348 17.9018 1.99441 18.3805 1.54766C19.4867 0.515888 20.5291 0 21.5077 0C22.4863 0 23.2203 0.324424 23.7096 0.973273C24.1989 1.61149 24.4435 2.43052 24.4435 3.43039C24.4435 4.43025 24.2999 5.59499 24.0127 6.9246C23.7255 8.24357 23.3745 9.53595 22.9597 10.8017C22.5448 12.0675 22.13 13.3014 21.7152 14.5034C20.7259 17.3647 20.2313 19.2474 20.2313 20.1515C20.2313 21.0557 20.3855 21.5077 20.694 21.5077C21.0025 21.5077 21.4546 21.1142 22.0502 20.327C22.6565 19.5293 23.0501 18.9177 23.2309 18.4922Z" fill="#6C63FF"/>
</svg>
