<svg width="550" height="758" viewBox="0 0 550 758" fill="none" xmlns="http://www.w3.org/2000/svg">
<path d="M256.162 681.189C256.162 670.8 264.584 662.378 274.973 662.378C285.362 662.378 293.784 670.8 293.784 681.189C293.784 691.578 285.362 700 274.973 700C264.584 700 256.162 691.578 256.162 681.189Z" fill="#0E0E0E"/>
<path d="M256.162 662.378H293.784H256.162ZM293.784 681.689C293.784 692.078 285.362 700.5 274.973 700.5C264.584 700.5 256.162 692.078 256.162 681.689V681.189C256.162 691.302 264.584 699.5 274.973 699.5H274.974C285.362 699.5 293.784 691.302 293.784 681.189V681.689ZM256.162 700V662.378V700ZM293.784 662.378V700V662.378Z" fill="#6C63FF"/>
<g filter="url(#filter0_d_617_201)">
<path d="M260.652 681.189C260.652 673.281 267.063 666.871 274.971 666.871C282.879 666.871 289.29 673.281 289.29 681.189C289.29 689.097 282.879 695.508 274.971 695.508C267.063 695.508 260.652 689.097 260.652 681.189Z" fill="#0E0E0E"/>
<path d="M260.652 680.69C260.652 672.781 267.063 666.371 274.971 666.371C282.879 666.371 289.29 672.781 289.29 680.69V681.189C289.29 673.557 282.879 667.371 274.971 667.371H274.971C267.063 667.371 260.652 673.557 260.652 681.189V680.69ZM289.29 695.508H260.652H289.29ZM260.652 695.508V666.871V695.508ZM289.29 666.871V695.508V666.871Z" fill="#6C63FF"/>
</g>
<path d="M238 616.973C238 596.553 254.554 580 274.974 580C295.393 580 311.947 596.553 311.947 616.973C311.947 637.393 295.393 653.946 274.974 653.946C254.554 653.946 238 637.393 238 616.973Z" fill="#0E0E0E"/>
<path d="M238 580H311.947H238ZM311.947 617.472C311.947 637.892 295.394 654.446 274.974 654.446C254.554 654.446 238 637.892 238 617.472V616.973C238 637.116 254.553 653.446 274.973 653.446H274.974C295.394 653.446 311.947 637.116 311.947 616.973V617.472ZM238 653.946V580V653.946ZM311.947 580V653.946V580Z" fill="#6C63FF"/>
<g filter="url(#filter1_d_617_201)">
<path d="M246.83 616.973C246.83 601.43 259.431 588.83 274.974 588.83C290.517 588.83 303.118 601.43 303.118 616.973C303.118 632.516 290.517 645.117 274.974 645.117C259.431 645.117 246.83 632.516 246.83 616.973Z" fill="#0E0E0E"/>
<path d="M246.83 616.474C246.83 600.93 259.431 588.33 274.974 588.33C290.518 588.33 303.118 600.93 303.118 616.474V616.973C303.118 601.706 290.518 589.33 274.975 589.33H274.974C259.43 589.33 246.83 601.706 246.83 616.973V616.474ZM303.118 645.117H246.83H303.118ZM246.83 645.117V588.83V645.117ZM303.118 588.83V645.117V588.83Z" fill="#6C63FF"/>
</g>
<path d="M0 275C0 123.122 123.122 0 275 0C426.878 0 550 123.122 550 275C550 426.878 426.878 550 275 550C123.122 550 0 426.878 0 275Z" fill="#0E0E0E"/>
<path d="M0 0H550H0ZM550 275.5C550 427.378 426.878 550.5 275 550.5C123.122 550.5 0 427.378 0 275.5V275C0 426.602 123.122 549.5 275 549.5C426.878 549.5 550 426.602 550 275V275.5ZM0 550V0V550ZM550 0V550V0Z" fill="#6C63FF"/>
<g filter="url(#filter2_d_617_201)">
<path d="M67 275C67 160.125 160.125 67 275 67C389.875 67 483 160.125 483 275C483 389.875 389.875 483 275 483C160.125 483 67 389.875 67 275Z" fill="#0E0E0E"/>
<path d="M67 274.5C67 159.625 160.125 66.5 275 66.5C389.875 66.5 483 159.625 483 274.5V275C483 160.401 389.875 67.5 275 67.5C160.125 67.5 67 160.401 67 275V274.5ZM483 483H67H483ZM67 483V67V483ZM483 67V483V67Z" fill="#6C63FF"/>
</g>
<defs>
<filter id="filter0_d_617_201" x="202.652" y="612.371" width="144.639" height="145.137" filterUnits="userSpaceOnUse" color-interpolation-filters="sRGB">
<feFlood flood-opacity="0" result="BackgroundImageFix"/>
<feColorMatrix in="SourceAlpha" type="matrix" values="0 0 0 0 0 0 0 0 0 0 0 0 0 0 0 0 0 0 127 0" result="hardAlpha"/>
<feMorphology radius="8" operator="dilate" in="SourceAlpha" result="effect1_dropShadow_617_201"/>
<feOffset dy="4"/>
<feGaussianBlur stdDeviation="25"/>
<feComposite in2="hardAlpha" operator="out"/>
<feColorMatrix type="matrix" values="0 0 0 0 0.423529 0 0 0 0 0.388235 0 0 0 0 1 0 0 0 0.15 0"/>
<feBlend mode="normal" in2="BackgroundImageFix" result="effect1_dropShadow_617_201"/>
<feBlend mode="normal" in="SourceGraphic" in2="effect1_dropShadow_617_201" result="shape"/>
</filter>
<filter id="filter1_d_617_201" x="188.83" y="534.33" width="172.289" height="172.787" filterUnits="userSpaceOnUse" color-interpolation-filters="sRGB">
<feFlood flood-opacity="0" result="BackgroundImageFix"/>
<feColorMatrix in="SourceAlpha" type="matrix" values="0 0 0 0 0 0 0 0 0 0 0 0 0 0 0 0 0 0 127 0" result="hardAlpha"/>
<feMorphology radius="8" operator="dilate" in="SourceAlpha" result="effect1_dropShadow_617_201"/>
<feOffset dy="4"/>
<feGaussianBlur stdDeviation="25"/>
<feComposite in2="hardAlpha" operator="out"/>
<feColorMatrix type="matrix" values="0 0 0 0 0.423529 0 0 0 0 0.388235 0 0 0 0 1 0 0 0 0.15 0"/>
<feBlend mode="normal" in2="BackgroundImageFix" result="effect1_dropShadow_617_201"/>
<feBlend mode="normal" in="SourceGraphic" in2="effect1_dropShadow_617_201" result="shape"/>
</filter>
<filter id="filter2_d_617_201" x="9" y="12.5" width="532" height="532.5" filterUnits="userSpaceOnUse" color-interpolation-filters="sRGB">
<feFlood flood-opacity="0" result="BackgroundImageFix"/>
<feColorMatrix in="SourceAlpha" type="matrix" values="0 0 0 0 0 0 0 0 0 0 0 0 0 0 0 0 0 0 127 0" result="hardAlpha"/>
<feMorphology radius="8" operator="dilate" in="SourceAlpha" result="effect1_dropShadow_617_201"/>
<feOffset dy="4"/>
<feGaussianBlur stdDeviation="25"/>
<feComposite in2="hardAlpha" operator="out"/>
<feColorMatrix type="matrix" values="0 0 0 0 0.423529 0 0 0 0 0.388235 0 0 0 0 1 0 0 0 0.15 0"/>
<feBlend mode="normal" in2="BackgroundImageFix" result="effect1_dropShadow_617_201"/>
<feBlend mode="normal" in="SourceGraphic" in2="effect1_dropShadow_617_201" result="shape"/>
</filter>
</defs>
</svg>
