<svg aria-hidden="true" style="position: absolute; width: 0; height: 0; overflow: hidden;" version="1.1"
    xmlns="http://www.w3.org/2000/svg" xmlns:xlink="http://www.w3.org/1999/xlink">
    <defs>
        <symbol id="icon-burger-menu" viewBox="0 0 32 32">
            <path fill="#cbaf87" style="fill: var(--color2, #cbaf87)"
                d="M2.4 0h27.2c1.325 0 2.4 1.075 2.4 2.4v27.2c0 1.325-1.075 2.4-2.4 2.4h-27.2c-1.325 0-2.4-1.075-2.4-2.4v-27.2c0-1.325 1.075-2.4 2.4-2.4z">
            </path>
            <path fill="#0e0e0e" style="fill: var(--color3, #0e0e0e)"
                d="M7.2 8h17.6c0.884 0 1.6 0.716 1.6 1.6s-0.716 1.6-1.6 1.6h-17.6c-0.884 0-1.6-0.716-1.6-1.6s0.716-1.6 1.6-1.6z">
            </path>
            <path fill="#0e0e0e" style="fill: var(--color3, #0e0e0e)"
                d="M7.2 14.4h17.6c0.884 0 1.6 0.716 1.6 1.6s-0.716 1.6-1.6 1.6h-17.6c-0.884 0-1.6-0.716-1.6-1.6s0.716-1.6 1.6-1.6z">
            </path>
            <path fill="#0e0e0e" style="fill: var(--color3, #0e0e0e)"
                d="M7.2 20.8h17.6c0.884 0 1.6 0.716 1.6 1.6s-0.716 1.6-1.6 1.6h-17.6c-0.884 0-1.6-0.716-1.6-1.6s0.716-1.6 1.6-1.6z">
            </path>
        </symbol>
        <symbol id="icon-close-button" viewBox="0 0 32 32">
            <path fill="#cbaf87" style="fill: var(--color2, #cbaf87)"
                d="M2.4 0h27.2c1.325 0 2.4 1.075 2.4 2.4v27.2c0 1.325-1.075 2.4-2.4 2.4h-27.2c-1.325 0-2.4-1.075-2.4-2.4v-27.2c0-1.325 1.075-2.4 2.4-2.4z">
            </path>
            <path fill="#0e0e0e" style="fill: var(--color3, #0e0e0e)"
                d="M18.391 16l5.113-5.113c0.661-0.661 0.661-1.731 0-2.392s-1.731-0.661-2.392 0l-5.113 5.113-5.113-5.113c-0.661-0.661-1.731-0.661-2.392 0s-0.661 1.731 0 2.392l5.113 5.113-5.113 5.113c-0.661 0.661-0.661 1.731 0 2.392s1.731 0.661 2.392 0l5.113-5.113 5.113 5.113c0.661 0.661 1.731 0.661 2.392 0s0.661-1.731 0-2.392l-5.113-5.113z">
            </path>
        </symbol>
        <symbol id="icon-linkedin-logo" viewBox="0 0 32 32">
            <path fill="#cbaf87" style="fill: var(--color2, #cbaf87)"
                d="M2.4 0h27.2c1.325 0 2.4 1.075 2.4 2.4v27.2c0 1.325-1.075 2.4-2.4 2.4h-27.2c-1.325 0-2.4-1.075-2.4-2.4v-27.2c0-1.325 1.075-2.4 2.4-2.4z">
            </path>
            <path fill="#0e0e0e" style="fill: var(--color3, #0e0e0e)"
                d="M8.573 7.468c-0 1.086-0.664 2.063-1.678 2.47s-2.175 0.164-2.937-0.615c-0.761-0.779-0.971-1.939-0.53-2.932s1.445-1.622 2.538-1.589c1.452 0.043 2.606 1.225 2.606 2.667zM8.653 12.108h-5.372v16.692h5.372v-16.692zM17.142 12.108h-5.346v16.692h5.292v-8.76c0-4.88 6.407-5.333 6.407 0v8.76h5.305v-10.573c0-8.226-9.482-7.92-11.712-3.88l0.054-2.24z">
            </path>
        </symbol>
        <symbol id="icon-github-logo" viewBox="0 0 32 32">
            <path fill="#cbaf87" style="fill: var(--color2, #cbaf87)"
                d="M2.4 0h27.2c1.325 0 2.4 1.075 2.4 2.4v27.2c0 1.325-1.075 2.4-2.4 2.4h-27.2c-1.325 0-2.4-1.075-2.4-2.4v-27.2c0-1.325 1.075-2.4 2.4-2.4z">
            </path>
            <path fill="#0e0e0e" style="fill: var(--color3, #0e0e0e)"
                d="M15.999 1.6c-7.952 0-14.399 6.609-14.399 14.764 0 6.523 4.125 12.057 9.847 14.010 0.72 0.137 0.984-0.32 0.984-0.71 0-0.352-0.013-1.515-0.019-2.749-4.005 0.893-4.851-1.742-4.851-1.742-0.655-1.706-1.598-2.16-1.598-2.16-1.307-0.917 0.098-0.897 0.098-0.897 1.446 0.105 2.207 1.522 2.207 1.522 1.284 2.256 3.368 1.604 4.19 1.227 0.13-0.955 0.503-1.606 0.914-1.975-3.198-0.373-6.56-1.639-6.56-7.296 0-1.612 0.563-2.929 1.484-3.963-0.15-0.373-0.643-1.874 0.139-3.908 0 0 1.21-0.396 3.961 1.513 1.148-0.327 2.38-0.491 3.604-0.497 1.224 0.006 2.456 0.17 3.607 0.497 2.748-1.911 3.956-1.513 3.956-1.513 0.784 2.034 0.29 3.535 0.142 3.908 0.923 1.033 1.482 2.351 1.482 3.963 0 5.671-3.368 6.919-6.575 7.285 0.516 0.458 0.977 1.357 0.977 2.734 0 1.976-0.017 3.566-0.017 4.052 0 0.392 0.259 0.854 0.989 0.709 5.719-1.955 9.84-7.487 9.84-14.007-0.001-8.155-6.449-14.765-14.401-14.765z">
            </path>
        </symbol>
        <symbol id="icon-behance-logo" viewBox="0 0 32 32">
            <path fill="#cbaf87" style="fill: var(--color2, #cbaf87)"
                d="M2.4 0h27.2c1.325 0 2.4 1.075 2.4 2.4v27.2c0 1.325-1.075 2.4-2.4 2.4h-27.2c-1.325 0-2.4-1.075-2.4-2.4v-27.2c0-1.325 1.075-2.4 2.4-2.4z">
            </path>
            <path fill="#0e0e0e" style="fill: var(--color3, #0e0e0e)"
                d="M13.325 14.626c0 0 2.749-0.204 2.749-3.428s-2.249-4.798-5.099-4.798h-9.376v18.018h9.376c0 0 5.724 0.181 5.724-5.318 0 0 0.25-4.474-3.374-4.474zM10.301 9.602h0.675c0 0 1.274 0 1.274 1.875s-0.75 2.146-1.6 2.146h-4.92v-4.021h4.57zM10.711 21.216h-4.98v-4.815h5.245c0 0 1.9-0.025 1.9 2.474 0 2.108-1.419 2.325-2.165 2.341zM24.333 10.984c-6.929 0-6.923 6.923-6.923 6.923s-0.475 6.888 6.923 6.888c0 0 6.165 0.352 6.165-4.791h-3.171c0 0 0.106 1.937-2.889 1.937 0 0-3.171 0.213-3.171-3.135h9.336c0 0 1.022-7.822-6.271-7.822zM21.233 16.401c0 0 0.387-2.777 3.171-2.777s2.748 2.777 2.748 2.777h-5.919zM27.891 9.68h-7.434v-2.219h7.434v2.219z">
            </path>
        </symbol>
        <symbol id="icon-react-logo" viewBox="0 0 32 32">
            <path fill="#6c63ff" style="fill: var(--color1, #6c63ff)"
                d="M4.571 0.001h22.857c2.514 0 4.571 2.057 4.571 4.571v22.857c0 2.514-2.057 4.571-4.571 4.571h-22.857c-2.514 0-4.571-2.057-4.571-4.571v-22.857c0-2.514 2.057-4.571 4.571-4.571z">
            </path>
            <path fill="#0e0e0e" style="fill: var(--color3, #0e0e0e)"
                d="M29.142 16.001c0-1.829-2.171-3.314-5.371-4.343 0.8-3.314 0.457-5.943-1.029-6.743-0.457-0.229-0.8-0.343-1.257-0.343-1.486 0-3.314 1.029-5.143 2.857-1.943-1.829-3.771-2.857-5.257-2.857-0.457 0-0.914 0.114-1.257 0.343-1.486 0.8-1.829 3.429-1.029 6.743-3.2 1.029-5.371 2.514-5.371 4.343s2.171 3.314 5.371 4.343c-0.8 3.314-0.571 5.943 1.029 6.857 0.343 0.229 0.8 0.343 1.257 0.343 1.486 0 3.314-1.028 5.143-2.857 1.828 1.829 3.771 2.857 5.143 2.857 0.457 0 0.914-0.114 1.257-0.343 1.486-0.914 1.828-3.543 1.028-6.857 3.314-1.028 5.486-2.628 5.486-4.343zM21.485 5.83c0.228 0 0.457 0 0.571 0.114 0.686 0.457 1.029 1.943 0.8 3.886-0.114 0.457-0.114 1.029-0.228 1.486-1.029-0.229-2.172-0.457-3.314-0.571-0.686-0.914-1.371-1.829-2.057-2.514 1.6-1.6 3.2-2.4 4.229-2.4zM19.771 18.058c-0.343 0.686-0.8 1.257-1.143 1.943-0.8 0-1.486 0.114-2.286 0.114s-1.6 0-2.286-0.114c-0.457-0.571-0.8-1.257-1.143-1.943s-0.686-1.372-1.029-2.057c0.343-0.686 0.686-1.371 1.029-2.057s0.8-1.371 1.257-1.943c0.686 0 1.486-0.114 2.286-0.114s1.486 0 2.286 0.114c0.457 0.571 0.8 1.257 1.257 1.943 0.343 0.686 0.686 1.371 1.029 2.057-0.457 0.686-0.914 1.372-1.257 2.057zM21.485 17.487c0.228 0.686 0.457 1.257 0.686 1.943-0.686 0.114-1.372 0.229-2.057 0.343 0.229-0.343 0.457-0.686 0.686-1.143 0.229-0.343 0.457-0.8 0.686-1.143zM16.228 22.858c-0.457-0.457-0.914-1.029-1.371-1.6 0.457 0 0.914 0 1.371 0s0.914 0 1.371 0c-0.457 0.571-0.914 1.143-1.371 1.6zM12.342 19.772c-0.686-0.114-1.371-0.229-2.057-0.343 0.229-0.686 0.457-1.257 0.686-1.943 0.229 0.343 0.457 0.8 0.686 1.143 0.229 0.457 0.457 0.8 0.686 1.143zM11.085 14.515c-0.229-0.686-0.457-1.371-0.686-1.943 0.686-0.114 1.371-0.229 2.057-0.343-0.229 0.343-0.457 0.8-0.686 1.143-0.343 0.343-0.571 0.8-0.686 1.143zM16.228 9.144c0.457 0.457 0.914 1.029 1.371 1.6-0.457 0-0.914 0-1.371 0s-0.914 0-1.371 0c0.457-0.571 0.914-1.143 1.371-1.6zM20.8 13.372c-0.228-0.457-0.457-0.8-0.686-1.143 0.686 0.114 1.372 0.229 2.057 0.343-0.229 0.686-0.457 1.371-0.686 1.943-0.229-0.343-0.457-0.8-0.686-1.143zM9.714 9.83c-0.229-1.943 0-3.429 0.8-3.886 0.114-0.114 0.343-0.114 0.571-0.114 1.029 0 2.629 0.8 4.343 2.514-0.686 0.8-1.371 1.6-2.057 2.514-1.143 0.114-2.286 0.343-3.314 0.571-0.229-0.571-0.343-1.143-0.343-1.6zM7.657 18.515c-1.829-0.8-2.971-1.714-2.971-2.629 0-0.8 1.143-1.829 2.971-2.629 0.457-0.229 0.914-0.343 1.486-0.457 0.343 1.029 0.686 2.057 1.143 3.086-0.457 1.029-0.914 2.057-1.143 3.086-0.571 0-1.029-0.229-1.486-0.457zM10.514 26.058c-0.686-0.457-1.029-1.943-0.8-3.886 0.114-0.457 0.114-1.029 0.343-1.6 1.029 0.228 2.057 0.457 3.2 0.571 0.686 0.914 1.371 1.829 2.171 2.629-1.714 1.6-3.314 2.514-4.343 2.514-0.229-0.114-0.457-0.114-0.571-0.228zM22.857 22.172c0.229 1.943 0 3.428-0.8 3.886-0.114 0.114-0.343 0.114-0.571 0.114-1.029 0-2.629-0.8-4.343-2.514 0.686-0.8 1.486-1.6 2.171-2.629 1.143-0.114 2.286-0.229 3.2-0.571 0.114 0.686 0.228 1.257 0.343 1.714zM24.914 18.515c-0.457 0.228-0.914 0.343-1.486 0.571-0.343-1.028-0.686-2.057-1.143-3.086 0.457-1.028 0.914-2.171 1.143-3.086 0.571 0.114 1.028 0.343 1.486 0.457 1.829 0.8 2.972 1.714 2.972 2.628 0 0.8-1.143 1.829-2.972 2.514z">
            </path>
            <path fill="#0e0e0e" style="fill: var(--color3, #0e0e0e)"
                d="M16.344 18.401c1.372 0 2.4-1.028 2.4-2.4s-1.028-2.4-2.4-2.4c-1.371 0-2.4 1.029-2.4 2.4s1.029 2.4 2.4 2.4z">
            </path>
        </symbol>
        <symbol id="icon-html-logo" viewBox="0 0 32 32">
            <path fill="#6c63ff" style="fill: var(--color1, #6c63ff)"
                d="M0 4.8c0-2.651 2.149-4.8 4.8-4.8h22.4c2.651 0 4.8 2.149 4.8 4.8v22.4c0 2.651-2.149 4.8-4.8 4.8h-22.4c-2.651 0-4.8-2.149-4.8-4.8v-22.4z">
            </path>
            <path fill="#0e0e0e" style="fill: var(--color3, #0e0e0e)"
                d="M6.4 4.8l1.768 19.871 7.932 2.238 7.987-2.238 1.769-19.871h-19.456zM22.014 11.282h-9.313l0.207 2.501h8.898l-0.691 7.518-4.96 1.367v0.015h-0.055l-5.002-1.382-0.304-3.842h2.418l0.18 1.935 2.708 0.732 2.721-0.732 0.305-3.151h-8.457l-0.65-7.379h12.216l-0.222 2.418z">
            </path>
        </symbol>
        <symbol id="icon-css-logo" viewBox="0 0 32 32">
            <path fill="#6c63ff" style="fill: var(--color1, #6c63ff)"
                d="M0 4.8c0-2.651 2.149-4.8 4.8-4.8h22.4c2.651 0 4.8 2.149 4.8 4.8v22.4c0 2.651-2.149 4.8-4.8 4.8h-22.4c-2.651 0-4.8-2.149-4.8-4.8v-22.4z">
            </path>
            <path fill="#0e0e0e" style="fill: var(--color3, #0e0e0e)"
                d="M6.4 4.8h19.2l-1.746 20.126-7.874 2.274-7.831-2.276-1.748-20.124zM22.026 8.918l-12.050-0.002 0.194 2.446 9.258 0.002-0.232 2.535h-6.072l0.22 2.401h5.652l-0.334 3.288-2.661 0.751-2.701-0.757-0.173-1.969h-2.385l0.266 3.599 4.995 1.588 4.912-1.427 1.113-12.455z">
            </path>
        </symbol>
        <symbol id="icon-figma-logo" viewBox="0 0 32 32">
            <path fill="#6c63ff" style="fill: var(--color1, #6c63ff)"
                d="M0 4.8c0-2.651 2.149-4.8 4.8-4.8h22.4c2.651 0 4.8 2.149 4.8 4.8v22.4c0 2.651-2.149 4.8-4.8 4.8h-22.4c-2.651 0-4.8-2.149-4.8-4.8v-22.4z">
            </path>
            <path fill="#0e0e0e" style="fill: var(--color3, #0e0e0e)"
                d="M22.495 12.66c0.687-0.613 1.169-1.417 1.382-2.304s0.148-1.818-0.187-2.668c-0.335-0.85-0.924-1.581-1.69-2.097s-1.672-0.791-2.6-0.79h-6.8c-0.928-0-1.835 0.275-2.601 0.79s-1.355 1.246-1.69 2.097c-0.335 0.85-0.4 1.781-0.187 2.668s0.695 1.691 1.382 2.304c-0.474 0.423-0.853 0.939-1.112 1.514s-0.393 1.197-0.393 1.826c0 0.629 0.134 1.251 0.393 1.827s0.638 1.091 1.112 1.514c-0.566 0.506-0.995 1.143-1.247 1.854s-0.32 1.471-0.197 2.213c0.123 0.742 0.432 1.443 0.901 2.038s1.080 1.066 1.78 1.37c0.7 0.304 1.466 0.431 2.229 0.371s1.498-0.307 2.14-0.718c0.641-0.411 1.168-0.972 1.533-1.633s0.556-1.401 0.556-2.154v-2.713c0.987 0.529 2.138 0.684 3.234 0.436s2.061-0.882 2.714-1.782c0.652-0.9 0.946-2.004 0.826-3.103s-0.646-2.116-1.479-2.859zM21.6 9.319c-0.001 0.573-0.232 1.122-0.644 1.527s-0.971 0.633-1.554 0.634l-0.002-0-0.004 0-2.196-0v-4.323h2.2c0.583 0.001 1.142 0.229 1.555 0.634s0.644 0.955 0.645 1.528zM10.4 9.319c0.001-0.573 0.233-1.122 0.645-1.528s0.972-0.633 1.555-0.634h2.2v4.323l-2.202 0c-0.583-0.001-1.142-0.229-1.554-0.634s-0.644-0.954-0.644-1.527zM10.4 16c0.001-0.573 0.232-1.122 0.644-1.527s0.971-0.633 1.554-0.634l0.002 0 2.2-0v4.323h-2.2c-0.583-0.001-1.142-0.229-1.555-0.634s-0.644-0.955-0.645-1.528zM14.8 22.681c0 0.428-0.129 0.845-0.371 1.201s-0.585 0.632-0.987 0.796c-0.402 0.164-0.844 0.206-1.271 0.123s-0.819-0.289-1.126-0.592c-0.308-0.302-0.517-0.687-0.602-1.107s-0.041-0.854 0.125-1.249c0.166-0.395 0.448-0.732 0.81-0.97s0.787-0.364 1.222-0.364h2.2v2.161zM19.4 18.161c-0.583-0-1.142-0.228-1.554-0.633s-0.644-0.954-0.645-1.527c-0-0.573 0.23-1.122 0.642-1.528s0.97-0.634 1.553-0.635h0.004l0.002-0c0.583 0.001 1.142 0.229 1.554 0.635s0.643 0.955 0.643 1.528c-0 0.573-0.232 1.122-0.644 1.527s-0.971 0.633-1.554 0.633z">
            </path>
        </symbol>
        <symbol id="icon-moqups-logo" viewBox="0 0 32 32">
            <path fill="#6c63ff" style="fill: var(--color1, #6c63ff)"
                d="M0 4.8c0-2.651 2.149-4.8 4.8-4.8h22.4c2.651 0 4.8 2.149 4.8 4.8v22.4c0 2.651-2.149 4.8-4.8 4.8h-22.4c-2.651 0-4.8-2.149-4.8-4.8v-22.4z">
            </path>
            <path fill="#0e0e0e" style="fill: var(--color3, #0e0e0e)"
                d="M25.533 20.456c0.219-0.169 1.48-1.053 1.667-1.256l-0.457 2.813c-0.616 0.643-1.339 1.162-2.132 1.529-0.66 0.3-1.371 0.455-2.089 0.457-0.671 0.017-1.327-0.214-1.849-0.66-0.276-0.282-0.487-0.627-0.619-1.008s-0.181-0.789-0.143-1.192c0-0.282 0.016-0.564 0.053-0.846 0.038-0.322 0.087-0.642 0.149-0.959l0.57-2.821 0.389-1.974c0.085-0.389 0.139-0.79 0.155-1.19 0.013-0.113 0.003-0.228-0.030-0.336s-0.088-0.207-0.162-0.29c-0.195-0.125-0.423-0.18-0.65-0.158-0.506 0.028-0.991 0.226-1.385 0.564-0.761 0.602-1.289 1.476-1.487 2.46l-1.508 7.639c-0.024 0.127-0.090 0.242-0.185 0.324s-0.214 0.127-0.337 0.127h-2.11c-0.079-0.001-0.156-0.020-0.227-0.056s-0.133-0.088-0.182-0.153c-0.049-0.065-0.085-0.14-0.103-0.221s-0.020-0.165-0.004-0.246l1.673-8.349c0.096-0.446 0.149-0.908 0.149-1.365 0.011-0.108-0-0.218-0.034-0.321s-0.087-0.198-0.158-0.277c-0.187-0.124-0.405-0.181-0.623-0.158-0.501 0.028-0.975 0.226-1.359 0.564-0.821 0.637-1.391 1.574-1.599 2.629l-1.508 7.503c-0.025 0.127-0.090 0.242-0.185 0.324s-0.214 0.127-0.337 0.127h-2.222c-0.079 0-0.157-0.019-0.228-0.054s-0.134-0.088-0.184-0.153c-0.050-0.065-0.086-0.14-0.105-0.222s-0.021-0.166-0.005-0.248l1.721-8.632v-0.118c0.043-0.288 0.069-0.575 0.069-0.869 0.008-0.278-0.081-0.549-0.25-0.762-0.069-0.089-0.155-0.162-0.252-0.212s-0.204-0.078-0.313-0.081c-0.277 0.006-0.56 0.073-0.81 0.203-0.278 0.137-0.542 0.303-0.789 0.496-0.25 0.192-0.25 0.186-0.405 0.355-0.117 0.118-0.33 0.006-0.298-0.164l0.453-2.228c0.021-0.116 0.065-0.226 0.128-0.323s0.145-0.179 0.239-0.242l0.533-0.305c0.65-0.344 1.364-0.519 2.089-0.513 0.844-0.058 1.679 0.211 2.35 0.756 0.357 0.322 0.613 0.745 0.73 1.224 0.523-0.604 1.155-1.090 1.859-1.43s1.465-0.527 2.239-0.55c0.576-0.023 1.151 0.147 1.631 0.485 0.226 0.186 0.41 0.423 0.54 0.693s0.202 0.567 0.212 0.87c0.597-0.666 1.306-1.207 2.089-1.591 0.66-0.3 1.371-0.455 2.089-0.457 0.677-0.034 1.338 0.197 1.871 0.643 0.276 0.282 0.488 0.626 0.621 1.007s0.183 0.789 0.146 1.193c-0.018 0.607-0.087 1.211-0.208 1.805l-0.133 0.677-0.821 4.107c-0.085 0.389-0.139 0.79-0.155 1.19-0.013 0.113-0.003 0.228 0.030 0.336s0.088 0.207 0.161 0.291c0.195 0.127 0.423 0.184 0.65 0.164 0.506-0.028 0.995-0.262 1.385-0.564z">
            </path>
        </symbol>
        <symbol id="icon-wagtail-logo" viewBox="0 0 32 32">
            <path fill="#6c63ff" style="fill: var(--color1, #6c63ff)"
                d="M0 4.8c0-2.651 2.149-4.8 4.8-4.8h22.4c2.651 0 4.8 2.149 4.8 4.8v22.4c0 2.651-2.149 4.8-4.8 4.8h-22.4c-2.651 0-4.8-2.149-4.8-4.8v-22.4z">
            </path>
            <path fill="#0e0e0e" style="fill: var(--color3, #0e0e0e)"
                d="M19.666 3.2c-2.821 0-4.39 2.1-5.054 3.534l-7.938 14.571 2.241-0.419-4.115 7.914 2.871-0.514 2.182-6.227c6.21 0 14.183-2.227 13.071-10.567 0 0-0.677-3.361-5.067-2.455-0.445-1.515-0.365-2.64 0.605-3.663 1.334-1.407 3.399-0.636 3.399-0.636l0.002-1.16c-0.726-0.318-1.424-0.378-2.198-0.378zM22.247 5.891c-0.069 0-0.138 0.014-0.202 0.040s-0.123 0.066-0.172 0.115c-0.049 0.049-0.088 0.107-0.115 0.171s-0.040 0.133-0.040 0.202 0.014 0.138 0.040 0.202c0.027 0.064 0.065 0.122 0.115 0.171s0.107 0.088 0.172 0.115c0.064 0.027 0.133 0.040 0.202 0.040 0.14 0 0.275-0.056 0.374-0.155s0.155-0.234 0.155-0.374-0.056-0.275-0.155-0.374c-0.099-0.099-0.234-0.155-0.374-0.155zM23.852 6.989l-1.38 1.679h3.128l-1.748-1.679zM19.872 12.098l0.324 0.011-0.044 0.587-0.040 0.308c-0.015 0.112-0.027 0.233-0.054 0.361l-0.079 0.409-0.114 0.447c-0.045 0.154-0.1 0.313-0.152 0.478-0.063 0.168-0.13 0.334-0.199 0.499l-0.182 0.382-0.071 0.126-0.143 0.256c-0.054 0.083-0.108 0.167-0.162 0.251l-0.082 0.127-0.091 0.122c-0.062 0.081-0.121 0.165-0.186 0.246-0.134 0.157-0.266 0.319-0.417 0.467-0.143 0.155-0.304 0.294-0.461 0.437l-0.247 0.203c-0.082 0.069-0.171 0.128-0.256 0.192-0.346 0.249-0.707 0.476-1.079 0.668-0.371 0.193-0.745 0.366-1.115 0.508-0.37 0.144-0.733 0.271-1.081 0.375-0.347 0.107-0.68 0.195-0.987 0.272-0.615 0.152-1.133 0.255-1.495 0.327l-0.57 0.109 0.567-0.123c0.36-0.080 0.875-0.196 1.486-0.362 0.305-0.084 0.634-0.179 0.977-0.294 0.344-0.112 0.701-0.246 1.065-0.398 0.365-0.15 0.73-0.331 1.091-0.529 0.362-0.198 0.712-0.43 1.045-0.682 0.082-0.065 0.167-0.125 0.245-0.194l0.236-0.204c0.15-0.144 0.303-0.282 0.438-0.436 0.143-0.147 0.267-0.308 0.394-0.463 0.061-0.080 0.116-0.162 0.174-0.242l0.085-0.12 0.077-0.125 0.151-0.246 0.198-0.374 0.056-0.126 0.11-0.247c0.065-0.166 0.124-0.328 0.18-0.486 0.047-0.161 0.096-0.315 0.136-0.465l0.1-0.435 0.067-0.397c0.024-0.124 0.032-0.242 0.044-0.351s0.022-0.209 0.032-0.299l0.028-0.57z">
            </path>
        </symbol>
        <symbol id="icon-wordpress-logo" viewBox="0 0 32 32">
            <path fill="#6c63ff" style="fill: var(--color1, #6c63ff)"
                d="M16.211 17.023l3.688 9.842c0.024 0.058 0.054 0.111 0.086 0.161-1.247 0.428-2.588 0.662-3.985 0.662-1.178 0-2.315-0.168-3.39-0.476l3.601-10.189zM28 16.001c0 4.312-2.399 8.076-5.967 10.102l3.665-10.321c0.685-1.667 0.913-3.001 0.913-4.186 0-0.43-0.029-0.83-0.081-1.202 0.937 1.664 1.47 3.575 1.47 5.607zM4 16.001c0-1.694 0.373-3.303 1.039-4.756l5.724 15.275c-4.003-1.894-6.763-5.892-6.763-10.518zM5.974 9.581c2.146-3.173 5.834-5.268 10.026-5.268 3.124 0 5.969 1.163 8.104 3.069-0.052-0.003-0.102-0.009-0.156-0.009-1.179 0-2.015 1-2.015 2.074 0 0.963 0.571 1.778 1.179 2.741 0.456 0.778 0.989 1.778 0.989 3.223 0 1-0.395 2.161-0.913 3.778l-1.197 3.895-4.337-12.563c0.722-0.037 1.373-0.111 1.373-0.111 0.647-0.075 0.571-1-0.076-0.963 0 0-1.944 0.149-3.198 0.149-1.179 0-3.16-0.149-3.16-0.149-0.647-0.037-0.723 0.926-0.076 0.963 0 0 0.612 0.074 1.259 0.111l1.869 4.989-2.626 7.671-4.37-12.66c0.723-0.037 1.374-0.111 1.374-0.111 0.646-0.075 0.57-1-0.077-0.963 0 0-1.943 0.149-3.198 0.149-0.225 0-0.491-0.005-0.772-0.014zM26.625 0.001h-21.25c-2.956 0-5.375 2.419-5.375 5.375v21.25c0 2.956 2.419 5.375 5.375 5.375h21.25c2.956 0 5.375-2.419 5.375-5.375v-21.25c0-2.956-2.419-5.375-5.375-5.375zM30 16.001c0 7.732-6.268 14-14 14s-14-6.268-14-14c0-7.732 6.268-14 14-14s14 6.268 14 14z">
            </path>
        </symbol>
        <symbol id="icon-opencart-logo" viewBox="0 0 32 32">
            <path fill="#6c63ff" style="fill: var(--color1, #6c63ff)"
                d="M0 4.801c0-2.651 2.149-4.8 4.8-4.8h22.4c2.651 0 4.8 2.149 4.8 4.8v22.4c0 2.651-2.149 4.8-4.8 4.8h-22.4c-2.651 0-4.8-2.149-4.8-4.8v-22.4z">
            </path>
            <path fill="#0e0e0e" style="fill: var(--color3, #0e0e0e)"
                d="M20.132 23.699c0 1.055-0.812 1.901-1.824 1.901s-1.832-0.846-1.832-1.901c0-1.055 0.824-1.909 1.832-1.909 1.016 0 1.824 0.854 1.824 1.909zM9.976 21.79c-1.012 0-1.824 0.859-1.824 1.909s0.812 1.901 1.824 1.901c1.012 0 1.832-0.846 1.832-1.901s-0.82-1.909-1.832-1.909zM21.644 10.535c-12.088 0-15.168-0.534-18.444-4.135 1.376 2.155 2.132 6.207 14.924 6.011 13.332-0.208 5.2 3.589 2.832 7.874 7.468-6.949 12.776-9.75 0.688-9.75z">
            </path>
        </symbol>
        <symbol id="icon-prestashop-logo" viewBox="0 0 32 32">
            <path fill="#6c63ff" style="fill: var(--color1, #6c63ff)"
                d="M0 4.8c0-2.651 2.149-4.8 4.8-4.8h22.4c2.651 0 4.8 2.149 4.8 4.8v22.4c0 2.651-2.149 4.8-4.8 4.8h-22.4c-2.651 0-4.8-2.149-4.8-4.8v-22.4z">
            </path>
            <path fill="#0e0e0e" style="fill: var(--color3, #0e0e0e)"
                d="M15.529 4.303c-6.81 0-12.329 5.521-12.329 12.329 0 1.342 0.214 2.635 0.612 3.837l0.002-0.008c0.14-0.649 0.329-1.286 0.565-1.906l0.012-0.032c0.091-0.237 0.191-0.472 0.295-0.704l0.090-0.193c0.085-0.182 0.176-0.363 0.27-0.541 0.038-0.072 0.075-0.145 0.115-0.216 0.021-0.041 0.047-0.078 0.068-0.117 0.1-0.177 0.203-0.354 0.309-0.526l0.080-0.122c0.133-0.208 0.273-0.412 0.419-0.611l0.037-0.053c0.154-0.206 0.315-0.405 0.481-0.601l0.107-0.126c0.165-0.189 0.336-0.373 0.513-0.551l0.106-0.103c0.188-0.186 0.382-0.365 0.582-0.537 0.789-2.645 3.205-4.571 6.065-4.571 1.151 0 2.296 0.331 3.276 0.931 1.008 0.622 1.824 1.51 2.358 2.567l0.008 0.016 0.043 0.079v0.003l0.004 0.002c0.598 0.369 1.158 0.797 1.672 1.278 0.043 0.039 0.086 0.076 0.128 0.116 0.002 0 0.006 0.005 0.008 0.006l-0.002-0.006-0.001-0.004v-0.003l0.045-0.090c0.402-2.543 1.525-4.375 2.848-4.375 0.996 0 1.879 1.040 2.428 2.641l0.005 0.017 0.001 0.002c0.155 0.169 0.306 0.353 0.452 0.556l0.007 0.011 0.022 0.071-0.021-0.083c-1.645-4.874-6.254-8.381-11.682-8.381l0.001-0.002zM13.789 9.042c-2.497 0.046-4.893 1.765-5.71 4.147l-0.013 0.036c0.442-0.354 0.911-0.674 1.403-0.955 2.993-1.766 6.911-1.756 9.896 0.017-0.955-1.763-2.806-3.007-4.8-3.204-0.258-0.032-0.517-0.046-0.777-0.042zM24.278 9.575c-0.141 0.003-0.282 0.027-0.416 0.071-1.349 0.599-1.834 2.211-2.166 3.523l-0.017 0.077c0.389-0.661 0.862-1.296 1.489-1.751 0.891-0.733 2.245-0.699 3.11 0.057 0.328 0.348 0.15 0.009 0.033-0.235-0.365-0.8-1.093-1.763-2.033-1.743v0.001zM16.373 12.069l-1.141 3.488-0.002 0.005-0.006 0.002-4.807 1.186 4.753 1.16c0.112 0.117 0.242 0.219 0.384 0.299h0.002c0.045 0.026 0.091 0.048 0.138 0.069l0.011 0.005c0.044 0.019 0.089 0.035 0.134 0.050l0.022 0.008c0.043 0.014 0.085 0.024 0.128 0.034l0.035 0.009c0.112 0.022 0.225 0.034 0.339 0.035 0.326 0.001 0.644-0.095 0.916-0.275s0.484-0.436 0.61-0.736c0.085-0.198 0.131-0.416 0.131-0.644v-0.012l-0.001-0.013c-0.001-0.058-0.004-0.114-0.011-0.171l-0.001-0.002c-0.006-0.055-0.016-0.109-0.028-0.163l-0.001-0.004c-0.024-0.106-0.058-0.208-0.102-0.307v-0.003c-0.088-0.197-0.214-0.375-0.371-0.523v-0.003l-1.131-3.494zM19.731 12.737c0.051 1.075 0.038 2.182-0.107 3.261-0.181 2.153-1.269 4.051-2.103 5.99l-0.032 0.085-0.037 0.092c1.611-1.623 3.381-3.243 4.234-5.421 0.409-0.678 0.126-1.431-0.123-2.108-0.181-0.935-1.14-1.363-1.832-1.9zM26.315 13.347l-0.627 2.867c-0.021 0.070-0.038 0.141-0.050 0.213-0.002 0.021-0.007 0.043-0.011 0.064-0.011 0.079-0.016 0.158-0.017 0.237l-0.002 0.033h0.003c0 0.67 0.317 1.212 0.707 1.213 0.068-0.001 0.134-0.017 0.194-0.048l0.029-0.016c0.026-0.015 0.051-0.032 0.075-0.050 0.014-0.011 0.026-0.024 0.038-0.035 0.057-0.052 0.106-0.113 0.146-0.179l0.032-0.058c0.020-0.038 0.039-0.076 0.056-0.115l0.018-0.043c0.021-0.056 0.040-0.115 0.056-0.177l0.002-0.002 0.001-0.003 0.431-0.481-0.434-0.486v0.001l-0.021-0.067-0.626-2.867zM21.642 14.26c0.736 1.83 0.907 3.954 0.097 5.792-0.523 1.459-1.693 2.627-1.999 4.165 0.779 0.123 1.566 0.188 2.357 0.198 2.31 0.031 4.621-0.448 6.703-1.456-2.176-3.060-4.396-6.139-7.158-8.7zM16.364 15.302c0.165 0 0.323 0.066 0.44 0.182s0.182 0.275 0.182 0.44c0 0.165-0.065 0.323-0.182 0.44s-0.275 0.182-0.44 0.182c-0.165 0-0.323-0.065-0.44-0.182s-0.182-0.275-0.182-0.44c0-0.165 0.066-0.323 0.182-0.44s0.275-0.182 0.44-0.182zM26.339 15.697c0.147 0 0.266 0.203 0.266 0.454s-0.118 0.454-0.266 0.454c-0.146 0-0.264-0.203-0.264-0.454s0.117-0.454 0.264-0.454zM22.026 15.893c-0.017 0.119-0.035 0.223-0.053 0.309l-0.006 0.024c-0.011 0.053-0.024 0.1-0.035 0.136-0.512 1.512-1.36 2.688-2.517 3.944-0.157 0.171-0.321 0.341-0.49 0.516-0.419 0.435-0.844 0.863-1.276 1.285-0.12 0.117-0.276 0.278-0.453 0.465-0.11 0.306-0.235 0.651-0.339 1.013-0.047-0.017-0.092-0.033-0.14-0.052-2.248-0.869-3.754-2.031-3.754-2.031s1.158 1.508 3.109 2.923c0.189 0.138 0.374 0.256 0.557 0.362-0.080 1.274 0.482 2.496 3.019 2.861 0.435 0.059 0.875 0.062 1.31 0.008l-0.011-0.031c-0.001-0.004-0.003-0.007-0.004-0.011 0 0-0.178-0.142-0.404-0.402-0.251-0.288-0.461-0.61-0.623-0.957-0.135-0.292-0.231-0.602-0.284-0.92-0.055-0.343-0.057-0.693-0.006-1.037 0.018-0.128 0.043-0.257 0.077-0.39 0.099-0.399 0.272-0.824 0.541-1.272l0.002-0.003 0.257-0.431c1.177-1.984 1.917-3.493 1.606-5.804-0.023-0.17-0.050-0.339-0.082-0.508zM27.019 16.724l0.003 0.038v0.011c0 0.014-0.003 0.027-0.003 0.041 0-0.015 0.003-0.030 0.003-0.046 0-0.015-0.002-0.028-0.003-0.043v-0.001zM27.006 17.018l-0.002 0.012-0.002 0.015 0.004-0.027zM28.449 23.341c-2.723 1.214-5.803 1.536-8.738 1.074-0.149 1.182 0.41 2.366 1.295 3.125l0.013 0.011c2.883-0.462 5.307-2.314 7.43-4.21z">
            </path>
        </symbol>
        <symbol id="icon-google-analytics-logo" viewBox="0 0 32 32">
            <path fill="#6c63ff" style="fill: var(--color1, #6c63ff)"
                d="M0 4.801c0-2.651 2.149-4.8 4.8-4.8h22.4c2.651 0 4.8 2.149 4.8 4.8v22.4c0 2.651-2.149 4.8-4.8 4.8h-22.4c-2.651 0-4.8-2.149-4.8-4.8v-22.4z">
            </path>
            <path fill="#0e0e0e" style="fill: var(--color3, #0e0e0e)"
                d="M21.004 6.259v19.2c0 2.138 1.478 3.341 3.098 3.341 1.478 0 3.098-1.011 3.098-3.341v-19.059c0-1.971-1.478-3.2-3.098-3.2s-3.098 1.357-3.098 3.059zM12.902 16v9.459c0 2.15 1.504 3.341 3.098 3.341 1.478 0 3.098-1.011 3.098-3.341v-9.318c0-1.971-1.478-3.2-3.098-3.2s-3.098 1.357-3.098 3.059zM7.898 22.694c1.711 0 3.098 1.37 3.098 3.046 0 1.69-1.387 3.059-3.098 3.059s-3.098-1.37-3.098-3.059c0-1.677 1.387-3.046 3.098-3.046z">
            </path>
        </symbol>
        <symbol id="icon-google-ads-logo" viewBox="0 0 32 32">
            <path fill="#6c63ff" style="fill: var(--color1, #6c63ff)"
                d="M0 4.8c0-2.651 2.149-4.8 4.8-4.8h22.4c2.651 0 4.8 2.149 4.8 4.8v22.4c0 2.651-2.149 4.8-4.8 4.8h-22.4c-2.651 0-4.8-2.149-4.8-4.8v-22.4z">
            </path>
            <path fill="#0e0e0e" style="fill: var(--color3, #0e0e0e)"
                d="M7.47 27.2c-1.133 0-2.219-0.432-3.020-1.201s-1.251-1.811-1.251-2.898 0.45-2.13 1.251-2.898c0.801-0.769 1.887-1.201 3.020-1.201s2.219 0.432 3.020 1.201c0.801 0.769 1.251 1.811 1.251 2.898s-0.45 2.13-1.251 2.898c-0.801 0.769-1.887 1.201-3.020 1.201zM28.249 21.050l-8.54-14.2c-0.566-0.942-1.499-1.629-2.593-1.91s-2.26-0.134-3.241 0.409c-0.981 0.544-1.697 1.439-1.99 2.489s-0.14 2.169 0.426 3.111l8.542 14.2c0.573 0.93 1.504 1.605 2.592 1.879s2.245 0.125 3.22-0.415c0.974-0.54 1.688-1.427 1.985-2.469s0.153-2.154-0.399-3.095zM11.222 8.666l-6.352 10.559c0.775-0.48 1.678-0.735 2.601-0.736 2.733-0.008 4.938 2.211 4.798 4.832l3.434-5.711-3.854-6.405c-0.461-0.77-0.679-1.652-0.627-2.539z">
            </path>
        </symbol>
        <symbol id="icon-meta-ads-logo" viewBox="0 0 32 32">
            <path fill="#6c63ff" style="fill: var(--color1, #6c63ff)"
                d="M4.571 0.001h22.857c2.514 0 4.571 2.057 4.571 4.571v22.857c0 2.514-2.057 4.572-4.571 4.572h-22.857c-2.514 0-4.571-2.057-4.571-4.572v-22.857c0-2.514 2.057-4.571 4.571-4.571z">
            </path>
            <path fill="#0e0e0e" style="fill: var(--color3, #0e0e0e)"
                d="M6.171 18.972c0-4.114 2.057-8.229 4.457-8.229 1.257 0 2.4 0.8 4.114 3.2-1.6 2.4-2.514 4-2.514 4-2.171 3.314-2.857 4.114-4.114 4.114-1.257-0.114-1.943-1.143-1.943-3.086zM20.228 17.487l-1.486-2.4c-0.343-0.686-0.8-1.257-1.143-1.829 1.372-2.057 2.4-3.086 3.772-3.086 2.743 0 4.914 4 4.914 8.914 0 1.829-0.572 2.971-1.829 2.971-1.371-0.114-1.943-0.914-4.228-4.571zM16.342 11.544c-2.057-2.514-3.657-3.543-5.714-3.543-4.114 0-7.2 5.371-7.2 10.971 0 3.543 1.714 5.714 4.571 5.714 2.057 0 3.543-0.914 6.171-5.6 0 0 1.143-1.943 1.829-3.314 0.229 0.457 0.572 0.914 0.8 1.371l1.257 2.057c2.4 4 3.772 5.372 6.172 5.372 2.743 0 4.343-2.286 4.343-5.829 0-5.943-3.2-10.857-7.086-10.857-2.057 0.114-3.657 1.714-5.143 3.657z">
            </path>
        </symbol>
        <symbol id="icon-google-adwords-logo" viewBox="0 0 32 32">
            <path fill="#6c63ff" style="fill: var(--color1, #6c63ff)"
                d="M0 4.801c0-2.651 2.149-4.8 4.8-4.8h22.4c2.651 0 4.8 2.149 4.8 4.8v22.4c0 2.651-2.149 4.8-4.8 4.8h-22.4c-2.651 0-4.8-2.149-4.8-4.8v-22.4z">
            </path>
            <path fill="#0e0e0e" style="fill: var(--color3, #0e0e0e)"
                d="M28.759 27.706l-6.829-20.975-5.052 15.52 1.195 3.671c0.565 1.722 2.16 2.879 3.971 2.879h5.921c0.566 0 0.969-0.554 0.794-1.094zM20.174 3.2h-8.347c-0.361 0-0.682 0.233-0.794 0.576l-7.791 23.93c-0.175 0.54 0.228 1.093 0.794 1.093h5.921c1.811 0 3.406-1.157 3.972-2.88l7.040-21.627c0.175-0.539-0.227-1.093-0.794-1.093z">
            </path>
        </symbol>
        <symbol id="icon-google-tag-manager-logo" viewBox="0 0 32 32">
            <path fill="#6c63ff" style="fill: var(--color1, #6c63ff)"
                d="M0 4.801c0-2.651 2.149-4.8 4.8-4.8h22.4c2.651 0 4.8 2.149 4.8 4.8v22.4c0 2.651-2.149 4.8-4.8 4.8h-22.4c-2.651 0-4.8-2.149-4.8-4.8v-22.4z">
            </path>
            <path fill="#0e0e0e" style="fill: var(--color3, #0e0e0e)"
                d="M16.003 3.2c-0.633 0-1.252 0.188-1.778 0.54s-0.936 0.851-1.179 1.436c-0.242 0.585-0.306 1.228-0.182 1.849s0.428 1.191 0.876 1.638l7.324 7.323-4.743 4.844 1.862 1.958c0.287 0.224 0.538 0.49 0.747 0.788l0.013 0.012-0.001 0.002c0.423 0.612 0.65 1.339 0.65 2.083-0 0.28-0.032 0.559-0.096 0.832l8.268-8.157c0.033-0.031 0.072-0.053 0.104-0.085 0.025-0.024 0.041-0.056 0.064-0.081 0.569-0.604 0.88-1.405 0.868-2.235s-0.346-1.622-0.932-2.209l-9.602-9.6c-0.297-0.298-0.649-0.534-1.038-0.695s-0.805-0.244-1.225-0.243zM12.404 5.475l-8.268 8.188c-0.599 0.6-0.936 1.413-0.936 2.26s0.337 1.661 0.936 2.26l8.215 8.267c-0.055-0.256-0.083-0.516-0.082-0.778 0-0.971 0.386-1.901 1.072-2.588s1.617-1.072 2.588-1.072c0.297 0 0.593 0.036 0.881 0.108l-5.892-6.197 4.663-4.665-2.219-2.219c-0.963-0.964-1.273-2.329-0.958-3.565zM15.929 22.546c-0.829 0-1.624 0.33-2.211 0.916s-0.916 1.381-0.916 2.21c-0 0.829 0.329 1.625 0.916 2.211s1.382 0.916 2.211 0.916c0.83 0 1.625-0.329 2.212-0.916s0.916-1.382 0.916-2.212c-0-0.829-0.33-1.624-0.917-2.211s-1.382-0.916-2.212-0.916z">
            </path>
        </symbol>
        <symbol id="icon-illustrator-logo" viewBox="0 0 32 32">
            <path fill="#6c63ff" style="fill: var(--color1, #6c63ff)"
                d="M14.221 13.621l1.202 3.763h-3.922l1.179-3.763c0.272-0.907 0.499-1.972 0.725-2.856h0.045c0.227 0.884 0.476 1.927 0.771 2.856zM32 5.334v21.333c0 2.933-2.4 5.333-5.333 5.333h-21.333c-2.933 0-5.333-2.4-5.333-5.333v-21.333c0-2.933 2.4-5.333 5.333-5.333h21.333c2.933 0 5.333 2.4 5.333 5.333zM20.274 23.821l-4.965-15.278h-3.559l-4.896 15.278h2.879l1.315-4.33h4.851l1.383 4.33h2.992zM24.988 12.782h-2.811v11.040h2.811v-11.040zM25.146 9.699c-0.023-0.861-0.612-1.519-1.564-1.519-0.929 0-1.564 0.657-1.564 1.519 0 0.839 0.612 1.496 1.541 1.496 0.975-0 1.587-0.657 1.587-1.496z">
            </path>
        </symbol>
        <symbol id="icon-indesign-logo" viewBox="0 0 32 32">
            <path fill="#6c63ff" style="fill: var(--color1, #6c63ff)"
                d="M21.123 16.76c0.046 0.227 0.068 0.499 0.068 0.726v1.655c0 0.295-0.022 0.567-0.091 0.816-0.272 1.202-1.269 1.972-2.403 1.972-1.768 0-2.766-1.473-2.766-3.491 0-2.063 0.998-3.65 2.788-3.65 1.269 0 2.154 0.884 2.403 1.972zM32 5.334v21.333c0 2.933-2.4 5.333-5.333 5.333h-21.333c-2.933 0-5.333-2.4-5.333-5.333v-21.333c0-2.933 2.4-5.333 5.333-5.333h21.333c2.933 0 5.333 2.4 5.333 5.333zM10.719 8.645h-2.788v15.279h2.788v-15.279zM24.070 23.924c-0.046-0.748-0.091-1.972-0.091-3.105v-12.989h-2.788v6.257h-0.045c-0.498-0.816-1.587-1.451-3.105-1.451-2.652 0-4.964 2.199-4.942 5.894 0 3.4 2.086 5.644 4.715 5.644 1.609 0 2.947-0.771 3.604-1.995h0.045l0.113 1.746h2.494z">
            </path>
        </symbol>
        <symbol id="icon-photoshop-logo" viewBox="0 0 32 32">
            <path fill="#6c63ff" style="fill: var(--color1, #6c63ff)"
                d="M26.667 0.001h-21.333c-2.933 0-5.333 2.4-5.333 5.333v21.333c0 2.933 2.4 5.333 5.333 5.333h21.333c2.933 0 5.333-2.4 5.333-5.333v-21.333c0-2.933-2.4-5.333-5.333-5.333zM15.332 16.284c-1.111 1.111-2.856 1.632-4.828 1.632-0.521 0-0.997-0.023-1.36-0.091v5.758h-2.765v-15.074c0.997-0.181 2.38-0.317 4.261-0.317 2.040 0 3.536 0.431 4.511 1.247 0.907 0.748 1.496 1.95 1.496 3.378 0 1.451-0.453 2.652-1.315 3.468zM21.134 23.81c-1.337 0-2.539-0.317-3.355-0.771l0.544-2.017c0.635 0.385 1.836 0.794 2.834 0.794 1.224 0 1.768-0.499 1.768-1.224 0-0.748-0.453-1.133-1.813-1.609-2.154-0.748-3.060-1.927-3.038-3.219 0-1.95 1.609-3.468 4.171-3.468 1.224 0 2.29 0.317 2.924 0.657l-0.544 1.972c-0.476-0.272-1.36-0.635-2.335-0.635-0.997 0-1.541 0.476-1.541 1.156 0 0.703 0.521 1.043 1.927 1.542 1.995 0.725 2.924 1.745 2.947 3.378 0 1.995-1.564 3.445-4.488 3.445zM13.858 12.929c0 1.791-1.27 2.811-3.355 2.811-0.567 0-1.020-0.023-1.36-0.113v-5.168c0.295-0.068 0.839-0.136 1.61-0.136 1.927 0 3.105 0.907 3.105 2.607z">
            </path>
        </symbol>
        <symbol id="icon-c-logo" width="346" height="347" viewBox="0 0 346 347" fill="none"
            xmlns="http://www.w3.org/2000/svg">
            <g filter="url(#filter0_d_494_55)">
                <path
                    d="M58.0332 169.5C58.0332 106.005 109.506 54.5327 173 54.5327C236.495 54.5327 287.968 106.005 287.968 169.5V170C287.968 106.781 236.495 55.5327 173 55.5327C109.506 55.5327 58.0332 106.781 58.0332 170V169.5Z"
                    fill="#6C63FF" />
            </g>
            <g filter="url(#filter1_g_494_55)">
                <path
                    d="M325 170.5C325 254.447 256.947 322.5 173 322.5C89.0527 322.5 21 254.447 21 170.5V170C21 253.671 89.0527 321.5 173 321.5C256.947 321.5 325 253.671 325 170V170.5Z"
                    fill="#6C63FF" />
            </g>
            <defs>
                <filter id="filter0_d_494_55" x="8.0332" y="8.53271" width="329.936" height="330.434"
                    filterUnits="userSpaceOnUse" color-interpolation-filters="sRGB">
                    <feFlood flood-opacity="0" result="BackgroundImageFix" />
                    <feColorMatrix in="SourceAlpha" type="matrix" values="0 0 0 0 0 0 0 0 0 0 0 0 0 0 0 0 0 0 127 0"
                        result="hardAlpha" />
                    <feOffset dy="4" />
                    <feGaussianBlur stdDeviation="25" />
                    <feComposite in2="hardAlpha" operator="out" />
                    <feColorMatrix type="matrix" values="0 0 0 0 0.423529 0 0 0 0 0.388235 0 0 0 0 1 0 0 0 0.15 0" />
                    <feBlend mode="normal" in2="BackgroundImageFix" result="effect1_dropShadow_494_55" />
                    <feBlend mode="normal" in="SourceGraphic" in2="effect1_dropShadow_494_55" result="shape" />
                </filter>
                <filter id="filter1_g_494_55" x="17" y="14" width="312" height="312.5" filterUnits="userSpaceOnUse"
                    color-interpolation-filters="sRGB">
                    <feFlood flood-opacity="0" result="BackgroundImageFix" />
                    <feBlend mode="normal" in="SourceGraphic" in2="BackgroundImageFix" result="shape" />
                    <feTurbulence type="fractalNoise" baseFrequency="2 2" numOctaves="3" seed="141" />
                    <feDisplacementMap in="shape" scale="8" xChannelSelector="R" yChannelSelector="G"
                        result="displacedImage" width="100%" height="100%" />
                    <feMerge result="effect1_texture_494_55">
                        <feMergeNode in="displacedImage" />
                    </feMerge>
                </filter>
            </defs>
        </symbol>
        <symbol id="icon-office365-logo" viewBox="0 0 32 32">
            <path fill="#6c63ff" style="fill: var(--color1, #6c63ff)"
                d="M4.8 0h22.4c2.651 0 4.8 2.149 4.8 4.8v22.4c0 2.651-2.149 4.8-4.8 4.8h-22.4c-2.651 0-4.8-2.149-4.8-4.8v-22.4c0-2.651 2.149-4.8 4.8-4.8z">
            </path>
            <path fill="#0e0e0e" style="fill: var(--color3, #0e0e0e)"
                d="M18.688 28.719c0.336 0.108 0.728 0.108 1.064 0l6.664-2.097c0.448-0.161 0.784-0.538 0.784-1.022v-19.361c0-0.323-0.224-0.645-0.56-0.753l-6.776-2.205c-0.392-0.108-0.784-0.108-1.12 0l-13.384 4.948c-0.336 0.108-0.56 0.43-0.56 0.753v14.575c0 0.323 0.224 0.645 0.56 0.753l13.328 4.41zM19.36 25.116c0 0.323-0.28 0.592-0.56 0.538l-11.2-1.452c-0.28-0.054-0.504-0.269-0.504-0.538v-0.215c0-0.215 0.112-0.376 0.392-0.484l2.128-0.968c0.224-0.108 0.336-0.269 0.336-0.484v-11.456c0-0.269 0.168-0.484 0.448-0.538l8.4-1.829c0.336-0.054 0.672 0.161 0.672 0.538v16.887h-0.112z">
            </path>
        </symbol>
        <symbol id="icon-bg-mb" viewBox="0 0 32 32">
            <path fill="#6c63ff" style="fill: var(--color1, #6c63ff)"
                d="M5.352 15.631c0-5.855 4.747-10.602 10.602-10.602s10.602 4.747 10.602 10.602v0.046c0-5.83-4.747-10.556-10.602-10.556s-10.602 4.726-10.602 10.556v-0.046zM26.556 26.279v0zM5.352 26.279v0zM26.556 5.075v0z">
            </path>
            <path fill="#6c63ff" style="fill: var(--color1, #6c63ff)"
                d="M1.937 1.66v0zM29.971 15.723c0 7.742-6.276 14.017-14.017 14.017s-14.017-6.276-14.017-14.017v-0.046c0 7.716 6.276 13.971 14.017 13.971s14.017-6.255 14.017-13.971v0.046zM1.937 29.695v0zM29.971 1.66v0z">
            </path>
        </symbol>
        <symbol id="icon-bg-tb" viewBox="0 0 23 32">
            <path fill="#6c63ff" style="fill: var(--color1, #6c63ff)"
                d="M3.564 11.433c0-4.481 3.633-8.114 8.114-8.114s8.114 3.633 8.114 8.114v0.031c0-4.464-3.633-8.084-8.114-8.084s-8.114 3.619-8.114 8.084v-0.031zM19.792 19.578v0zM3.564 19.578v0zM19.792 3.349v0z">
            </path>
            <path fill="#6c63ff" style="fill: var(--color1, #6c63ff)"
                d="M0.95 0.736v0zM22.406 11.494c0 5.925-4.803 10.728-10.728 10.728s-10.728-4.803-10.728-10.728v-0.031c0 5.908 4.803 10.697 10.728 10.697s10.728-4.789 10.728-10.697v0.031zM0.95 22.192v0zM22.406 0.736v0z">
            </path>
            <path fill="#6c63ff" style="fill: var(--color1, #6c63ff)"
                d="M11.109 27.619c0-0.283 0.229-0.512 0.512-0.512s0.512 0.229 0.512 0.512v0.031c0-0.266-0.229-0.481-0.512-0.481h-0c-0.283 0-0.512 0.215-0.512 0.481v-0.031zM12.133 28.161v0zM11.109 28.161v0zM12.133 27.137v0z">
            </path>
            <path fill="#6c63ff" style="fill: var(--color1, #6c63ff)"
                d="M10.948 26.977v0zM12.294 27.68c0 0.372-0.301 0.673-0.673 0.673s-0.673-0.301-0.673-0.673v-0.031c0 0.355 0.301 0.642 0.673 0.642h0c0.371 0 0.673-0.287 0.673-0.642v0.031zM10.948 28.322v0zM12.294 26.977v0z">
            </path>
            <path fill="#6c63ff" style="fill: var(--color1, #6c63ff)"
                d="M10.615 25.322c0-0.556 0.451-1.006 1.006-1.006s1.006 0.451 1.006 1.006v0.031c0-0.539-0.451-0.976-1.006-0.976h-0c-0.556 0-1.006 0.437-1.006 0.976v-0.031zM12.627 26.359v0zM10.615 26.359v0zM12.627 24.346v0z">
            </path>
            <path fill="#6c63ff" style="fill: var(--color1, #6c63ff)"
                d="M10.299 24.031v0zM12.943 25.383c0 0.73-0.592 1.322-1.322 1.322s-1.322-0.592-1.322-1.322v-0.031c0 0.713 0.592 1.291 1.322 1.291h0c0.73 0 1.322-0.578 1.322-1.291v0.031zM10.299 26.675v0zM12.943 24.031v0z">
            </path>
        </symbol>
        <symbol id="icon-bg-dt" viewBox="0 0 23 32">
            <path fill="#6c63ff" style="fill: var(--color1, #6c63ff)"
                d="M11.114 28.753c0-0.332 0.269-0.601 0.601-0.601s0.601 0.269 0.601 0.601v0.021c0-0.32-0.269-0.58-0.601-0.58v0c-0.332 0-0.601 0.26-0.601 0.58v-0.021zM12.317 29.376v0zM11.114 29.376v0zM12.317 28.173v0z">
            </path>
            <path fill="#6c63ff" style="fill: var(--color1, #6c63ff)"
                d="M10.925 27.984v0zM12.505 28.795c0 0.436-0.354 0.79-0.79 0.79s-0.79-0.354-0.79-0.79v-0.021c0 0.425 0.354 0.769 0.79 0.769h0c0.436 0 0.79-0.344 0.79-0.769v0.021zM10.925 29.564v0zM12.505 27.984v0z">
            </path>
            <path fill="#6c63ff" style="fill: var(--color1, #6c63ff)"
                d="M10.534 26.057c0-0.653 0.529-1.182 1.182-1.182s1.182 0.529 1.182 1.182v0.021c0-0.641-0.529-1.161-1.182-1.161h-0c-0.653 0-1.182 0.52-1.182 1.161v-0.021zM12.897 27.259v0zM10.534 27.259v0zM12.897 24.896v0z">
            </path>
            <path fill="#6c63ff" style="fill: var(--color1, #6c63ff)"
                d="M10.163 24.525v0zM13.268 26.099c0 0.858-0.695 1.553-1.553 1.553s-1.553-0.695-1.553-1.553v-0.021c0 0.846 0.695 1.532 1.553 1.532h0c0.858 0 1.553-0.686 1.553-1.532v0.021zM10.163 27.63v0zM13.268 24.525v0z">
            </path>
            <path fill="#6c63ff" style="fill: var(--color1, #6c63ff)"
                d="M2.982 11.696c0-4.824 3.911-8.735 8.735-8.735s8.735 3.911 8.735 8.735v0.021c0-4.813-3.911-8.714-8.735-8.714s-8.735 3.901-8.735 8.714v-0.021zM20.451 20.451v0zM2.982 20.451v0zM20.451 2.982v0z">
            </path>
            <path fill="#6c63ff" style="fill: var(--color1, #6c63ff)"
                d="M0.168 0.168v0zM23.265 11.738c0 6.378-5.17 11.549-11.549 11.549s-11.549-5.17-11.549-11.549v-0.021c0 6.366 5.17 11.528 11.549 11.528s11.549-5.161 11.549-11.528v0.021zM0.168 23.265v0zM23.265 0.168v0z">
            </path>
        </symbol>
        <symbol id="icon-javascript-logo-gold" viewBox="0 0 32 32">
            <path fill="#cbaf87" style="fill: var(--color1, #cbaf87)"
                d="M0 4.8c0-2.651 2.149-4.8 4.8-4.8h22.4c2.651 0 4.8 2.149 4.8 4.8v22.4c0 2.651-2.149 4.8-4.8 4.8h-22.4c-2.651 0-4.8-2.149-4.8-4.8v-22.4z">
            </path>
            <path fill="#0e0e0e" style="fill: var(--color2, #0e0e0e)"
                d="M27.043 26.979c0.971-0.648 1.601-1.696 1.719-2.857 0.415-3.23-2.652-4.126-4.698-4.724l-0.019-0.005c-2.247-0.648-2.774-0.97-2.689-1.636 0.024-0.424 0.244-0.812 0.596-1.051 1.159-0.794 3.656-0.381 4.437-0.174 0.412 0.098 0.845-0.020 1.15-0.313 0.688-0.663 0.401-1.822-0.517-2.087-0.42-0.108-4.158-1.036-6.456 0.513-0.945 0.64-1.557 1.666-1.672 2.801-0.372 2.935 2.536 3.775 4.462 4.332 2.507 0.724 3.057 1.103 2.937 2.019-0.021 0.445-0.251 0.855-0.62 1.105-1.161 0.772-3.616 0.335-4.384 0.128-0.427-0.119-0.886-0.002-1.203 0.308-0.683 0.669-0.386 1.826 0.534 2.083 0.991 0.265 2.011 0.404 3.037 0.414 1.136 0 2.387-0.196 3.384-0.856z">
            </path>
            <path fill="#0e0e0e" style="fill: var(--color2, #0e0e0e)"
                d="M14.73 22.869v-7.861c0-0.443-0.237-0.853-0.621-1.075-0.828-0.478-1.862 0.119-1.862 1.075v7.861c-0.001 0.885-0.473 1.703-1.239 2.147-1.654 0.957-3.724-0.236-3.725-2.147 0-0.444-0.237-0.853-0.621-1.075-0.827-0.478-1.862 0.12-1.862 1.075 0 1.774 0.946 3.413 2.482 4.3 3.31 1.911 7.447-0.478 7.447-4.3z">
            </path>
        </symbol>
        <symbol id="icon-html-logo-gold" viewBox="0 0 32 32">
            <path fill="#cbaf87" style="fill: var(--color1, #cbaf87)"
                d="M0 4.8c0-2.651 2.149-4.8 4.8-4.8h22.4c2.651 0 4.8 2.149 4.8 4.8v22.4c0 2.651-2.149 4.8-4.8 4.8h-22.4c-2.651 0-4.8-2.149-4.8-4.8v-22.4z">
            </path>
            <path fill="#0e0e0e" style="fill: var(--color2, #0e0e0e)"
                d="M6.4 4.8l1.768 19.871 7.932 2.238 7.987-2.238 1.769-19.871h-19.456zM22.014 11.282h-9.313l0.207 2.501h8.898l-0.691 7.518-4.96 1.367v0.015h-0.055l-5.002-1.382-0.304-3.842h2.418l0.18 1.935 2.708 0.732 2.721-0.732 0.305-3.151h-8.457l-0.65-7.379h12.216l-0.222 2.418z">
            </path>
        </symbol>
        <symbol id="icon-css-logo-gold" viewBox="0 0 32 32">
            <path fill="#cbaf87" style="fill: var(--color1, #cbaf87)"
                d="M0 4.8c0-2.651 2.149-4.8 4.8-4.8h22.4c2.651 0 4.8 2.149 4.8 4.8v22.4c0 2.651-2.149 4.8-4.8 4.8h-22.4c-2.651 0-4.8-2.149-4.8-4.8v-22.4z">
            </path>
            <path fill="#0e0e0e" style="fill: var(--color2, #0e0e0e)"
                d="M6.4 4.8h19.2l-1.746 20.126-7.874 2.274-7.831-2.276-1.748-20.124zM22.026 8.918l-12.050-0.002 0.194 2.446 9.258 0.002-0.232 2.535h-6.072l0.22 2.401h5.652l-0.334 3.288-2.661 0.751-2.701-0.757-0.173-1.969h-2.385l0.266 3.599 4.995 1.588 4.912-1.427 1.113-12.455z">
            </path>
        </symbol>
        <symbol id="icon-vite-logo-gold" viewBox="0 0 32 32">
            <path fill="#cbaf87" style="fill: var(--color1, #cbaf87)"
                d="M0 4.8c0-2.651 2.149-4.8 4.8-4.8h22.4c2.651 0 4.8 2.149 4.8 4.8v22.4c0 2.651-2.149 4.8-4.8 4.8h-22.4c-2.651 0-4.8-2.149-4.8-4.8v-22.4z">
            </path>
            <path fill="#0e0e0e" style="fill: var(--color2, #0e0e0e)"
                d="M12.035 14.483l0.547-9.234c0.004-0.072 0.033-0.141 0.080-0.195s0.112-0.091 0.183-0.105l8.899-1.742c0.055-0.011 0.112-0.007 0.165 0.010s0.101 0.048 0.139 0.090c0.038 0.041 0.064 0.091 0.077 0.146s0.011 0.111-0.004 0.165l-1.664 5.763c-0.016 0.054-0.017 0.11-0.004 0.165s0.039 0.104 0.077 0.146c0.038 0.041 0.085 0.072 0.138 0.090s0.11 0.021 0.165 0.011l2.55-0.491c0.060-0.012 0.122-0.006 0.179 0.015s0.107 0.059 0.144 0.108 0.060 0.107 0.065 0.168c0.006 0.061-0.006 0.122-0.034 0.177l-7.252 14.453-0.131 0.203c-0.028 0.046-0.068 0.084-0.115 0.11s-0.1 0.040-0.154 0.039c-0.189 0-0.374-0.162-0.326-0.394l1.17-5.654c0.011-0.055 0.008-0.113-0.009-0.167s-0.049-0.102-0.090-0.14c-0.042-0.038-0.093-0.065-0.148-0.077s-0.113-0.011-0.167 0.006l-1.531 0.464c-0.054 0.016-0.112 0.019-0.167 0.006s-0.106-0.039-0.148-0.077-0.073-0.086-0.091-0.14c-0.018-0.054-0.021-0.111-0.009-0.167l0.737-3.6c0.011-0.054 0.009-0.109-0.008-0.162s-0.045-0.1-0.085-0.138c-0.039-0.038-0.088-0.066-0.141-0.081s-0.109-0.016-0.162-0.003l-2.478 0.572c-0.049 0.011-0.101 0.011-0.15-0.001s-0.095-0.035-0.134-0.068c-0.039-0.033-0.069-0.074-0.089-0.121s-0.029-0.097-0.026-0.148h0.001zM28.030 6.029l-6.385 1.161-0.581 2.013 2.218-0.427c0.172-0.034 0.35-0.015 0.511 0.056s0.295 0.188 0.386 0.338c0.077 0.124 0.121 0.267 0.128 0.413s-0.025 0.292-0.091 0.422l-7.267 14.481-0.016 0.024-0.13 0.203c-0.077 0.12-0.183 0.22-0.308 0.289s-0.266 0.105-0.409 0.106c-0.13-0.001-0.257-0.030-0.374-0.086s-0.22-0.136-0.303-0.236c-0.080-0.099-0.137-0.214-0.166-0.338s-0.031-0.252-0.004-0.377l1.099-5.313-1.196 0.363c-0.164 0.049-0.338 0.049-0.502-0.001s-0.309-0.147-0.417-0.279c-0.081-0.099-0.139-0.214-0.169-0.337s-0.033-0.253-0.007-0.377l0.673-3.285-2.165 0.499c-0.147 0.034-0.299 0.028-0.443-0.015s-0.274-0.124-0.377-0.233c-0.080-0.085-0.142-0.186-0.182-0.296s-0.057-0.227-0.050-0.344l0.415-7.008-7.946-1.419c-0.122-0.022-0.249-0.009-0.364 0.038s-0.214 0.126-0.286 0.227c-0.072 0.101-0.113 0.221-0.119 0.345s0.024 0.247 0.085 0.355l12.266 21.479c0.057 0.101 0.14 0.184 0.241 0.242s0.214 0.088 0.33 0.088c0.116-0 0.229-0.032 0.329-0.090s0.182-0.143 0.239-0.244l12.026-21.477c0.060-0.108 0.088-0.231 0.082-0.354s-0.049-0.242-0.121-0.343c-0.072-0.101-0.171-0.179-0.286-0.225s-0.24-0.059-0.362-0.037z">
            </path>
        </symbol>
        <symbol id="icon-axios-logo-gold" viewBox="0 0 32 32">
            <path fill="#cbaf87" style="fill: var(--color1, #cbaf87)"
                d="M0 4.8c0-2.651 2.149-4.8 4.8-4.8h22.4c2.651 0 4.8 2.149 4.8 4.8v22.4c0 2.651-2.149 4.8-4.8 4.8h-22.4c-2.651 0-4.8-2.149-4.8-4.8v-22.4z">
            </path>
            <path fill="#0e0e0e" style="fill: var(--color2, #0e0e0e)"
                d="M14.939 6.293v20.691l-2.407 1.816v-17.212h-4.532l6.939-5.295zM19.341 3.2v16.818h4.659l-7.061 5.428v-20.68l2.402-1.567z">
            </path>
        </symbol>
        <symbol id="icon-figma-logo-gold" viewBox="0 0 32 32">
            <path fill="#cbaf87" style="fill: var(--color1, #cbaf87)"
                d="M0 4.8c0-2.651 2.149-4.8 4.8-4.8h22.4c2.651 0 4.8 2.149 4.8 4.8v22.4c0 2.651-2.149 4.8-4.8 4.8h-22.4c-2.651 0-4.8-2.149-4.8-4.8v-22.4z">
            </path>
            <path fill="#0e0e0e" style="fill: var(--color2, #0e0e0e)"
                d="M22.495 12.66c0.687-0.613 1.169-1.417 1.382-2.304s0.148-1.818-0.187-2.668c-0.335-0.85-0.924-1.581-1.69-2.097s-1.672-0.791-2.6-0.79h-6.8c-0.928-0-1.835 0.275-2.601 0.79s-1.355 1.246-1.69 2.097c-0.335 0.85-0.4 1.781-0.187 2.668s0.695 1.691 1.382 2.304c-0.474 0.423-0.853 0.939-1.112 1.514s-0.393 1.197-0.393 1.826c0 0.629 0.134 1.251 0.393 1.827s0.638 1.091 1.112 1.514c-0.566 0.506-0.995 1.143-1.247 1.854s-0.32 1.471-0.197 2.213c0.123 0.742 0.432 1.443 0.901 2.038s1.080 1.066 1.78 1.37c0.7 0.304 1.466 0.431 2.229 0.371s1.498-0.307 2.14-0.718c0.641-0.411 1.168-0.972 1.533-1.633s0.556-1.401 0.556-2.154v-2.713c0.987 0.529 2.138 0.684 3.234 0.436s2.061-0.882 2.714-1.782c0.652-0.9 0.946-2.004 0.826-3.103s-0.646-2.116-1.479-2.859zM21.6 9.319c-0.001 0.573-0.232 1.122-0.644 1.527s-0.971 0.633-1.554 0.634l-0.002-0-0.004 0-2.196-0v-4.323h2.2c0.583 0.001 1.142 0.229 1.555 0.634s0.644 0.955 0.645 1.528zM10.4 9.319c0.001-0.573 0.233-1.122 0.645-1.528s0.972-0.633 1.555-0.634h2.2v4.323l-2.202 0c-0.583-0.001-1.142-0.229-1.554-0.634s-0.644-0.954-0.644-1.527zM10.4 16c0.001-0.573 0.232-1.122 0.644-1.527s0.971-0.633 1.554-0.634l0.002 0 2.2-0v4.323h-2.2c-0.583-0.001-1.142-0.229-1.555-0.634s-0.644-0.955-0.645-1.528zM14.8 22.681c0 0.428-0.129 0.845-0.371 1.201s-0.585 0.632-0.987 0.796c-0.402 0.164-0.844 0.206-1.271 0.123s-0.819-0.289-1.126-0.592c-0.308-0.302-0.517-0.687-0.602-1.107s-0.041-0.854 0.125-1.249c0.166-0.395 0.448-0.732 0.81-0.97s0.787-0.364 1.222-0.364h2.2v2.161zM19.4 18.161c-0.583-0-1.142-0.228-1.554-0.633s-0.644-0.954-0.645-1.527c-0-0.573 0.23-1.122 0.642-1.528s0.97-0.634 1.553-0.635h0.004l0.002-0c0.583 0.001 1.142 0.229 1.554 0.635s0.643 0.955 0.643 1.528c-0 0.573-0.232 1.122-0.644 1.527s-0.971 0.633-1.554 0.633z">
            </path>
        </symbol>
    </defs>
</svg>